<svg xmlns="http://www.w3.org/2000/svg" version="1.1" xmlns:xlink="http://www.w3.org/1999/xlink" xmlns:svgjs="http://svgjs.dev/svgjs" viewBox="0 0 9.660933450662506 9.660933450662506"><g transform="matrix(1,0,0,1,2.3715454283314497,2.9788797332185437)"><rect width="9.660933450662506" height="9.660933450662506" x="-2.37154542833145" y="-2.978879733218544" fill="#202020"></rect><g><path d=" M -0.1370454262667546 -0.7287609763322043 Q -0.15676639747469268 -0.819013861574814 -0.12535781848589195 -0.9055225383991896 Q -0.0939492394970913 -0.9920312152235653 -0.01476876242501346 -1.0594585987605094 Q 0.08572953539723915 -1.145039508634323 0.1999590880495618 -1.1497149017568566 Q 0.31418864070188457 -1.15439029487939 0.4124329273542332 -1.0791237010932277 L 0.25178792098684455 -0.9423239133403893 Q 0.211388647853698 -0.9604594786834775 0.17226825327494383 -0.9547284466644967 Q 0.13314785869618967 -0.9489974146455161 0.09964842608877211 -0.9204704446875782 Q 0.04787657569549045 -0.8763833092980379 0.04848637165820813 -0.8132000191899417 Q 0.04909616762092581 -0.7500167290818454 0.10161172595258416 -0.6883473190545539 Q 0.15477562451055932 -0.625916558286185 0.21705483050056834 -0.6152488265097471 Q 0.27933403649057736 -0.6045810947333092 0.33110588688385906 -0.6486682301228496 Q 0.3646053194912766 -0.6771952000807875 0.3764954245647264 -0.7149029632250303 Q 0.3883855296381762 -0.7526107263692732 0.3769175846659812 -0.7953832203123987 L 0.5375625910333699 -0.9321830080652371 Q 0.5962166391496795 -0.8232027225106029 0.5734030584080214 -0.7111768748961178 Q 0.5505894776663633 -0.5991510272816327 0.4500911798441107 -0.513570117407819 Q 0.37091070277203286 -0.44614273387087494 0.28050316318840607 -0.42891697448456734 Q 0.19009562360477933 -0.4116912150982598 0.10413713792308388 -0.4455385006513105 Q 0.0181786522413884 -0.47938578620436123 -0.04989707152187245 -0.5593276140175167 Q -0.11732445505881656 -0.6385080910895946 -0.1370454262667546 -0.7287609763322043 M 1.1337482394339466 -0.9610858471867906 L 0.8917128529630103 -1.130256978577062 L 0.8729598895041177 -1.1208057161476592 L 0.9899755195824367 -0.88862616856137 L 0.8149478606327724 -0.8004143858869449 L 0.49765547907425367 -1.429978159149768 L 0.7735919413979591 -1.5690467348966932 Q 0.8494967934934767 -1.6073018447299898 0.9154604642430979 -1.6075119428870102 Q 0.981424134992719 -1.6077220410440305 1.031392178748958 -1.5752344341273217 Q 1.0813602225051966 -1.5427468272106126 1.1101640699090907 -1.4855949385739875 Q 1.1425683982384713 -1.4212990638577843 1.1318232432754325 -1.3548532841210674 Q 1.121078088312394 -1.2884075043843506 1.0635616032171762 -1.2336639756134395 L 1.3293148583623982 -1.05964901252199 L 1.1337482394339466 -0.9610858471867906 M 0.8126518340022149 -1.240467482980593 L 0.8992726652170997 -1.2841233142021198 Q 0.9349925956149905 -1.3021257188295534 0.9443014186159048 -1.3280938880822684 Q 0.9536102416168191 -1.3540620573349833 0.9374080774521287 -1.3862099946930848 Q 0.9221060335188102 -1.416571935531292 0.8950233969340172 -1.4247591692287038 Q 0.8679407603492244 -1.4329464029261159 0.8331138282112809 -1.415394058414368 L 0.746492996996396 -1.3717382271928413 L 0.8126518340022149 -1.240467482980593 M 1.583990973477689 -1.1774302303929385 Q 1.4927462651374097 -1.2043681813153335 1.4271600443755454 -1.2740599860428339 Q 1.3615738236136814 -1.343751790770334 1.338512808044398 -1.4451627840645191 Q 1.3154517924751146 -1.5465737773587043 1.3444508250741731 -1.6377744139152477 Q 1.3734498576732317 -1.7289750504717913 1.444183566588908 -1.792234377238936 Q 1.5149172755045843 -1.8554937040060806 1.6114527402750105 -1.877446016903764 Q 1.7089633107501885 -1.899620070335767 1.799609595970932 -1.8730588019985879 Q 1.8902558811916754 -1.846497533661409 1.9553545491011635 -1.7766948586667486 Q 2.020453217010652 -1.7068921836720883 2.043514232579935 -1.6054811903779032 Q 2.066575248149219 -1.504070197083718 2.038063768402536 -1.4129804307943346 Q 2.0095522886558532 -1.321890664504951 1.938929450007337 -1.2581437848854304 Q 1.8683066113588207 -1.19439690526591 1.7717711465883945 -1.1724445923682267 Q 1.6752356818179681 -1.1504922794705434 1.583990973477689 -1.1774302303929385 M 1.8360991091735528 -1.423970263482812 Q 1.8676509211485737 -1.4813961562585707 1.849468197334331 -1.5613548240482165 Q 1.830841992451448 -1.6432637032473663 1.777670478380224 -1.6809106166849062 Q 1.7244989643089998 -1.7185575301224458 1.6513660364526164 -1.7019269900484435 Q 1.577258002891481 -1.6850747094401208 1.5460828735016763 -1.628247239783898 Q 1.5149077441118712 -1.5714197701276753 1.5335339489947541 -1.4895108909285257 Q 1.5519384133433167 -1.408577117434128 1.604622374562165 -1.370819333729428 Q 1.6573063357810132 -1.3330615500247283 1.7314143693421484 -1.3499138306330507 Q 1.804547297198532 -1.3665443707070533 1.8360991091735528 -1.423970263482812 M 2.3101286432885764 -1.3102408250948812 Q 2.2318979613566845 -1.3697656972448589 2.2273193938337905 -1.4788346512117796 L 2.4363016346657225 -1.476110129810801 Q 2.438819048209548 -1.4390741658156603 2.457595821951127 -1.4218279265775673 Q 2.4763725956927067 -1.4045816873394743 2.506370046529826 -1.4041906077125397 Q 2.5333677522832336 -1.4038386360482984 2.5510422511036737 -1.4171093591426234 Q 2.568716749924114 -1.4303800822369486 2.569029613625662 -1.4543780429066442 Q 2.5694337292401612 -1.4853754087716675 2.540657805219542 -1.5027520078854053 Q 2.511881881198923 -1.5201286069991433 2.4471611601240184 -1.5419741617768188 Q 2.378466850912627 -1.5658716905605603 2.3362507359593447 -1.5879238931319868 Q 2.294034621006062 -1.6099760957034133 2.2630782911110128 -1.65188320296971 Q 2.232121961215964 -1.6937903102360066 2.232995372382785 -1.7607846171055732 Q 2.2338818195371704 -1.828778839003044 2.2685111758827836 -1.8768314942791942 Q 2.3031405322283964 -1.9248841495553446 2.3634613335917476 -1.9490998659990746 Q 2.4237821349550988 -1.9733155824428048 2.4997756770758013 -1.9723248473879034 Q 2.622765225507991 -1.970721420917471 2.695509410773975 -1.912268161727002 Q 2.7682535960399597 -1.853814902536533 2.7718974284727724 -1.7497585596966965 L 2.5589155275292246 -1.7525352250479331 Q 2.558332764103384 -1.784545541928425 2.5400429118881926 -1.800785348144832 Q 2.5217530596730007 -1.8170251543612386 2.492755523863785 -1.817403198000609 Q 2.470757393249898 -1.8176899897270278 2.4565891150209036 -1.804873598190179 Q 2.4424208367919094 -1.7920572066533298 2.4421079730903617 -1.7680592459836344 Q 2.441847253339072 -1.748060945425555 2.4571569144518985 -1.7333601197136974 Q 2.472466575564725 -1.7186592940018401 2.4953277433370893 -1.707860358494865 Q 2.518188911109454 -1.69706142298789 2.5629765115641012 -1.680476163101024 Q 2.6296709907196845 -1.6566047062924116 2.6728739847133065 -1.6335395527055168 Q 2.716076978706929 -1.610474399118622 2.7470463445895423 -1.569567206880229 Q 2.7780157104721557 -1.5286600146418365 2.7772074792431574 -1.4666652829117897 Q 2.776386212026594 -1.403670636153839 2.7442370892693946 -1.3540855183669214 Q 2.7120879665121946 -1.3045004005800038 2.6522149787125375 -1.2762785060308754 Q 2.5923419909128804 -1.2480566114817473 2.5113488736526577 -1.2491125264744711 Q 2.3883593252204682 -1.2507159529449035 2.3101286432885764 -1.3102408250948812 M 2.9717983160940564 -1.271912897874665 Q 2.907677817753454 -1.3464233782955612 2.925911755030696 -1.4540548027559372 L 3.1297454483500013 -1.4078722793535579 Q 3.1244954374125364 -1.3711239816357519 3.139269299973428 -1.3503457963196113 Q 3.15404316253432 -1.3295676110034707 3.183301587412689 -1.3229385406586314 Q 3.209634169803221 -1.3169723773482762 3.229684665970781 -1.326271710842386 Q 3.2497351621383403 -1.335571044336496 3.255038418414212 -1.3589777842391915 Q 3.261888457770546 -1.3892114899468397 3.2373617869168645 -1.4121993653779268 Q 3.2128351160631827 -1.4351872408090138 3.154082211401437 -1.4700311239710238 Q 3.0918701214455644 -1.50770944483757 3.0551715199483427 -1.5380691656555903 Q 3.0184729184511214 -1.5684288864736102 2.996921786305861 -1.6158635647507689 Q 2.9753706541606006 -1.6632982430279273 2.9901755779307417 -1.7286420585896185 Q 3.005201470712377 -1.7949611549805888 3.049078015965352 -1.8347493288098011 Q 3.092954561218327 -1.8745375026390136 3.1569956362624314 -1.88566138268131 Q 3.221036711306536 -1.896785262723606 3.295158054331738 -1.8799916178500133 Q 3.415117596333052 -1.852812429436173 3.4740950191241144 -1.780492559407776 Q 3.533072441915177 -1.7081726893793792 3.51496806886613 -1.6056386380768926 L 3.3072332522297083 -1.6527050375252506 Q 3.313328979768258 -1.6841349930736724 3.2988217886105113 -1.7038274130547868 Q 3.2843145974527643 -1.7235198330359012 3.256031453403674 -1.7299279343692457 Q 3.2345752751595365 -1.7347892526221278 3.2180487464002008 -1.725204168002426 Q 3.2015222176408646 -1.7156190833827243 3.1962189613649934 -1.692212343480029 Q 3.1917995811351005 -1.6727067268944493 3.2037123833222525 -1.6551401351917374 Q 3.2156251855094045 -1.6375735434890255 3.235736469962127 -1.6222508075172195 Q 3.25584775441485 -1.6069280715454135 3.2961998875484895 -1.5813799727596913 Q 3.356461415845804 -1.5441435899161342 3.39391432916081 -1.5125876192573404 Q 3.4313672424758157 -1.4810316485985469 3.4531393436325706 -1.4345722511506673 Q 3.4749114447893255 -1.3881128537027876 3.461211366076658 -1.3276454422874913 Q 3.4472903183524957 -1.266202750042916 3.4055205216554763 -1.2243992324410484 Q 3.3637507249584564 -1.1825957148391808 3.299313414283013 -1.1674602269740215 Q 3.2348761036075695 -1.1523247391088622 3.1558783564359727 -1.170223229039928 Q 3.035918814434659 -1.1974024174537685 2.9717983160940564 -1.271912897874665 M 4.255653684259002 -1.5212310864127563 L 4.191603944103579 -1.3789861188883377 L 3.934468810501746 -1.4947683414769863 L 3.883557478583333 -1.3817018288293719 L 4.073217435282558 -1.2963021752888082 L 4.012041721928981 -1.1604399947686908 L 3.8223817652297565 -1.2458396483092542 L 3.709062994185547 -0.9941754749968216 L 3.530344958065124 -1.0746482254485064 L 3.8198005145367455 -1.7174860594530896 L 4.255653684259002 -1.5212310864127563 M 4.609110340680248 -1.2989959627137133 L 4.2267908623524795 -0.7066642849425653 L 4.062114254064331 -0.8129545228890086 L 4.444433732392098 -1.4052862006601567 L 4.609110340680248 -1.2989959627137133 M 5.214611718602263 -0.7993136923330912 L 5.110559730556882 -0.6830846779528428 L 4.9704888670729925 -0.8084806635459935 L 4.604305909144058 -0.39944393986165744 L 4.4582745833842585 -0.5301759248417508 L 4.824457541313193 -0.9392126485260868 L 4.685876793398282 -1.063274634272502 L 4.789928781443662 -1.1795036486527506 L 5.214611718602263 -0.7993136923330912" fill="#ffffff" fill-rule="nonzero"></path></g><g><path d=" M -0.670196889921195 2.0065169136645338 L -1.371392661915389 1.972923918301419 L -1.3632097527884766 1.8021198199951411 L -1.0745408381071062 1.8159494149523208 L -1.061811868354131 1.5502541509203327 L -1.3504807830355017 1.536424555963153 L -1.3422978739085891 1.365620457656875 L -0.6411021019143949 1.3992134530199896 L -0.6492850110413074 1.5700175513262677 L -0.9239699644578365 1.5568579021455604 L -0.9366989342108115 1.8225531661775483 L -0.6620139807942825 1.8357128153582556 L -0.670196889921195 2.0065169136645338 M -1.1410081961899545 2.699429694917814 L -1.1920342586283423 2.4424465418668135 L -1.3218396235166487 2.425400508714974 L -1.3567009409840969 2.249828049187764 L -0.6186750123537436 2.3622457020244276 L -0.5801133315796948 2.556454344406481 L -1.2192032307493574 2.9423093700045815 L -1.254454060143816 2.7647752070189666 L -1.1410081961899545 2.699429694917814 M -1.0201050303294852 2.630564431650214 L -0.7849699047494574 2.495178048588753 L -1.0537978120159015 2.4608770824982176 L -1.0201050303294852 2.630564431650214 M -0.9789746621751014 3.519826306479719 L -0.7982752893591019 3.2771562904828837 L -0.8152615936176204 3.239840536870809 L -1.0564487815981005 3.3496300643953805 L -1.1272940993592389 3.1939960676230705 L -0.48837558629396693 2.903157394708924 L -0.3694714564843372 3.1643676699934438 Q -0.3350845478634339 3.239909317549594 -0.33724206141530744 3.305167229983823 Q -0.3393995749671812 3.370425142418052 -0.37334695872114976 3.417741367291353 Q -0.4072943424751184 3.465057592164654 -0.46372304305923073 3.490744198604365 Q -0.5274328662993576 3.5197452058750063 -0.5938554386621764 3.5065811684735815 Q -0.6602780110249951 3.4934171310721567 -0.7131123466587423 3.4328652278969423 L -0.8990147421289045 3.6954833905560687 L -0.9789746621751014 3.519826306479719 M -0.7051346134454013 3.1897102243029862 L -0.6612188024355728 3.2861850994951785 Q -0.6417466975538565 3.3289616950992635 -0.6110774174769567 3.340821090512381 Q -0.5804081374000567 3.352680485925499 -0.5421822434559807 3.335279881563114 Q -0.5057766301759081 3.3187078774084617 -0.49457945498072464 3.287790677217494 Q -0.48338227978554116 3.2568734770265264 -0.5028543846672575 3.2140968814224413 L -0.546770195677086 3.117622006230249 L -0.7051346134454013 3.1897102243029862 M 0.0494825036491946 3.9053119542862866 Q 0.06530868663890388 3.997910722809287 0.030124247958186356 4.0824835037421785 Q -0.005060190722531166 4.16705628467507 -0.08742755123580381 4.230551307488489 Q -0.16900291789798727 4.293435801236394 -0.2601414984659908 4.306242406252928 Q -0.3512800790339944 4.319049011269463 -0.43710698545230653 4.279780803586119 Q -0.5229338918706188 4.240512595902774 -0.5900920890771194 4.153393272282966 L -0.7506612333072074 3.9450988894465175 L -0.19468154984261699 3.5165074854559406 L -0.03411240561252904 3.7248018682923894 Q 0.03365632065948532 3.812713185763286 0.0494825036491946 3.9053119542862866 M -0.3454272558362883 4.141556069267207 Q -0.27048301219082616 4.151965696753798 -0.19365960863517762 4.092744377398975 Q -0.11683620507952908 4.0335230580441515 -0.10703710665845112 3.9577868205476006 Q -0.09723800823737316 3.882050583051049 -0.1564593275921965 3.8052271794954007 L -0.20591218189880156 3.7410756775571787 L -0.5290456731431787 3.990171536286745 L -0.4795928188365738 4.054323038224966 Q -0.42037149948175045 4.131146441780615 -0.3454272558362883 4.141556069267207 M 0.19057222141123326 4.243657108744771 Q 0.2763394809166394 4.207446237491344 0.36773721979619045 4.221480243608822 Q 0.4591349586757415 4.235514249726299 0.5392864131577927 4.298599464669357 Q 0.6375112348269731 4.375909777099573 0.6666274628922753 4.4828174253912145 Q 0.6957436909575774 4.589725073682856 0.648810643221823 4.6978605860284 L 0.5010805114313757 4.581585876133355 Q 0.5117919713663897 4.534022606417527 0.49576382377944195 4.492137663001891 Q 0.47973567619249424 4.4502527195862545 0.4412315460981755 4.41994707711361 Q 0.37915345880325346 4.371086959657713 0.3066327912396395 4.384000238719508 Q 0.2341121236760254 4.396913517781302 0.17721173372738597 4.4692069865298185 Q 0.12031134377874658 4.541500455278335 0.12479893640376999 4.61502501928542 Q 0.1292865290287934 4.688549583292504 0.19136461632371543 4.737409700748401 Q 0.22986874641803412 4.767715343221046 0.27434708897930155 4.773453552262423 Q 0.31882543154056897 4.779191761303801 0.36254043155642757 4.757604756564526 L 0.5102705633468749 4.873879466459572 Q 0.416189601209914 4.944906028838612 0.3057429244680241 4.941330892942949 Q 0.19529624772613413 4.9377557570472845 0.09707142605695368 4.860445444617068 Q 0.016919971574902493 4.797360229674012 -0.018195859855450858 4.71181855338137 Q -0.05331169128580421 4.6262768770887295 -0.038575544631928776 4.534795480172222 Q -0.023839397978053373 4.443314083255715 0.040482781963886855 4.361591031626958 Q 0.10480496190582711 4.279867979998199 0.19057222141123326 4.243657108744771 M 0.7859909272051544 5.247282910651328 Q 0.7286688136105188 5.172206780669531 0.7170791961471031 5.077211092519743 Q 0.7054895786836876 4.982215404369955 0.7465517816379802 4.887754325143956 Q 0.7876139845922728 4.793293245917957 0.8647835281331753 4.737426336663115 Q 0.9419530716740778 4.681559427408273 1.0359521044123534 4.672262554586265 Q 1.129951137150629 4.662965681764257 1.2207438249503757 4.702433236060131 Q 1.3115365127501224 4.741900790356005 1.368858626344758 4.816976920337802 Q 1.4261807399393935 4.892053050319599 1.4370525906285485 4.9861915273765 Q 1.4479244413177035 5.080330004433401 1.4068622383634108 5.1747910836594 Q 1.3658000354091182 5.269252162885399 1.2888897097141947 5.325776952150825 Q 1.2119793840192714 5.382301741416251 1.1184389002092774 5.391797945320562 Q 1.0248984163992834 5.401294149224872 0.9341057285995367 5.361826594928998 Q 0.84331304079979 5.322359040633125 0.7859909272051544 5.247282910651328 M 1.1419717692034874 5.221021910476965 Q 1.2106102921777917 5.189796869821973 1.2472872113214317 5.105423867018168 Q 1.2843627926296766 5.0201337663578 1.2601751010088056 4.9491023960060065 Q 1.2359874093879346 4.878071025654213 1.1589511894366344 4.844583403827411 Q 1.080997871628771 4.8106971198360045 1.0127580108190715 4.841005062634434 Q 0.944518150009372 4.871313005432862 0.9070439065365223 4.957520203949794 Q 0.8699683252282775 5.042810304610161 0.8941560168491485 5.1138416749619555 Q 0.9183437084700194 5.184873045313749 0.9962970262778827 5.218759329305155 Q 1.0733332462291831 5.252246951131957 1.1419717692034874 5.221021910476965 M 1.901468870309078 5.631983509422431 L 1.8026950916252888 5.34600319428776 L 1.7622931300655575 5.339025981224796 L 1.7171965090488401 5.600160610818182 L 1.5486907669338632 5.571060527067772 L 1.668154268646073 4.879300112069445 L 1.9509679995641924 4.928140603510192 Q 2.032757336380234 4.9422652055644845 2.0854689357075102 4.980797494574621 Q 2.1381805350347864 5.019329783584757 2.158163647853141 5.0740282771845715 Q 2.1781467606714955 5.128726770784386 2.1675958531128674 5.189822419972272 Q 2.1556835381273194 5.258801378732789 2.107400021052383 5.306277182874207 Q 2.0591165039774464 5.353752987015626 1.9793256029884834 5.363313955552836 L 2.091653713748789 5.664827463596871 L 1.901468870309078 5.631983509422431 M 1.7828844173977192 5.21979092393876 L 1.8873382692350733 5.237829572345447 Q 1.9336527129742773 5.245827840978601 1.9607239811962738 5.227162460273865 Q 1.9877952494182702 5.2084970795691286 1.9949426384095992 5.167109704312819 Q 2.001749675544198 5.127693156449666 1.9825065000269904 5.101029507111777 Q 1.9632633245097826 5.074365857773887 1.9169488807705783 5.066367589140733 L 1.8124950289332242 5.048328940734047 L 1.7828844173977192 5.21979092393876 M 2.514607268669188 5.1064462530503905 L 2.518672045655374 5.248388063620964 L 2.747578204955806 5.241832895100988 L 2.7513567300415565 5.373778803518705 L 2.5224505707411247 5.38033397203868 L 2.5268588500078333 5.534270865192682 L 2.7857527157668374 5.5268569409714 L 2.7896743668028057 5.663800800465545 L 2.359850574229942 5.676109632184277 L 2.33975569081936 4.9743973010536955 L 2.769579483392224 4.9620884693349625 L 2.773501134428192 5.099032328829107 L 2.514607268669188 5.1064462530503905 M 3.8935563875679335 4.648528797387016 L 4.132283391623718 5.308690457538943 L 3.97147478209953 5.366841907244839 L 3.8283065930575284 4.97093299139874 L 3.8238317897293697 5.420232419547913 L 3.6940564206396744 5.467161659661444 L 3.40196477104488 5.124042921850476 L 3.5454730270442263 5.520892238921863 L 3.3846644175200384 5.579043688627759 L 3.1459374134642544 4.918882028475831 L 3.3358984609723588 4.850188503092258 L 3.6864300436234143 5.240230307985203 L 3.7045357412851163 4.716882255813244 L 3.8935563875679335 4.648528797387016 M 4.159998760709835 4.4676934435950715 L 4.402598337353827 4.810542456153305 Q 4.438988273850426 4.86196980803704 4.483932809553285 4.871818092682317 Q 4.528877345256145 4.881666377327594 4.5778557756216065 4.84700929494988 Q 4.626834205987069 4.812352212572168 4.633317022167945 4.766113991430292 Q 4.63979983834882 4.719875770288417 4.603409901852221 4.668448418404681 L 4.360810325208229 4.325599405846448 L 4.500398851749796 4.2268267210699655 L 4.742420810354159 4.568859426455441 Q 4.796716906079243 4.645592300694665 4.8016097917447915 4.721756988509058 Q 4.8065026774103385 4.79792167632345 4.770463338556937 4.863849030699382 Q 4.734423999703534 4.929776385075313 4.666670504364645 4.977718682364483 Q 4.598917009025756 5.025660979653653 4.526676302922199 5.036964978134698 Q 4.454435596818642 5.048268976615742 4.385581942658178 5.016750342305999 Q 4.316728288497716 4.985231707996254 4.262432192772632 4.90849883375703 L 4.020410234168269 4.566466128371554 L 4.159998760709835 4.4676934435950715 M 5.192827809690776 4.49708066782353 Q 5.133378540775929 4.525572498678888 5.072551932761493 4.519795496215839 Q 5.011725324747056 4.51401849375279 4.95919418710022 4.469235912568483 L 5.08123007138479 4.334212792522756 Q 5.112845704455788 4.357395798055258 5.143476469837561 4.35407823688373 Q 5.174107235219332 4.350760675712202 5.1989167281782835 4.323310920538071 Q 5.224396747973963 4.295119280088963 5.226165346069899 4.267063584396732 Q 5.227933944165835 4.239007888704502 5.204935500641563 4.218221556765921 Q 5.185646483492173 4.200787859010982 5.161300214174825 4.202371895098688 Q 5.136953944857477 4.203955931186394 5.11169477249616 4.2154982104942835 Q 5.086435600134845 4.227040489802173 5.044534444958938 4.252521722011871 Q 4.983359029286899 4.2888888571389785 4.93894678453307 4.306708860391672 Q 4.894534539779242 4.324528863644366 4.843330911566624 4.3200357068627735 Q 4.792127283354006 4.31554255008118 4.743162855205555 4.271287778857106 Q 4.670458098257855 4.2055761488577215 4.6768908709043755 4.115688054895962 Q 4.683323643550896 4.025799960934202 4.759763702937934 3.941225039586878 Q 4.83754481599843 3.855166347689601 4.926326854167344 3.8397067326046947 Q 5.015108892336258 3.8242471175197883 5.0919081687425765 3.8869198479810185 L 4.96786070394782 4.024168623851676 Q 4.941295550925162 4.002854481952863 4.911406670818366 4.006842569961118 Q 4.8815177907115705 4.010830657969374 4.857378824589348 4.037538527868529 Q 4.836592492650767 4.060536971392802 4.83609358979004 4.085696484423374 Q 4.835594686929313 4.110855997453947 4.858593130453585 4.131642329392528 Q 4.883817229802787 4.154440241841294 4.91936990880265 4.143439922939884 Q 4.954922587802513 4.132439604038476 5.016839888749528 4.096742995748097 Q 5.07949907497152 4.061716914294447 5.123576056306985 4.044267853679242 Q 5.167653037642449 4.026818793064035 5.21811478058009 4.0306414230089 Q 5.268576523517733 4.034464052953764 5.315315295841254 4.076707243667654 Q 5.359828412339844 4.116938853871359 5.375729722293478 4.1724221697578345 Q 5.391631032247111 4.22790548564431 5.374255148691183 4.290380109858073 Q 5.3568792651352535 4.352854734071835 5.30390764503371 4.411463670794981 Q 5.252277078605622 4.4685888369681726 5.192827809690776 4.49708066782353 M 5.183929220020308 3.7067793786546344 Q 5.134427291596287 3.6279326343825775 5.133616054674711 3.5354672792777757 Q 5.132804817753136 3.443001924172974 5.182213699886148 3.3537676125749902 Q 5.2427638005393495 3.2444118385578533 5.343615320885478 3.198520980602542 Q 5.4444668412316055 3.1526301226472313 5.558731331292003 3.181606428678838 L 5.467663979909587 3.3460775128006124 Q 5.418998330545818 3.343135647405564 5.380227437125478 3.3656760072826533 Q 5.341456543705139 3.3882163671597425 5.317720904249084 3.43108383057446 Q 5.27945324063626 3.500196679753291 5.303834141747745 3.5697061874554175 Q 5.328215042859231 3.6392156951575436 5.408700892535843 3.6837805692383 Q 5.489186742212456 3.7283454433190566 5.561038922236052 3.712120024191748 Q 5.632891102259647 3.6958946050644386 5.6711587658724705 3.626781755885608 Q 5.694894405328526 3.58391429247089 5.6934223739105585 3.539091495553423 Q 5.691950342492591 3.4942686986359557 5.663629526948297 3.45458329317115 L 5.754696878330712 3.2901122090493757 Q 5.839897320077573 3.3715792866092085 5.854088073997473 3.481168850451688 Q 5.868278827917373 3.590758414294167 5.8077287272641716 3.700114188311304 Q 5.758319845131159 3.789348499909288 5.67952007856826 3.8377333817385586 Q 5.600720312005359 3.8861182635678295 5.508059734207102 3.8862498769907243 Q 5.415399156408845 3.8863814904136187 5.324415152426587 3.836003806670155 Q 5.233431148444328 3.785626122926691 5.183929220020308 3.7067793786546344 M 5.982181411107366 2.9419510327115095 L 6.048086318417684 2.7278656684466482 L 6.17424376521662 2.766702488825943 L 6.0580275224149425 3.144219090989426 L 5.387099282620601 2.937677818972268 L 5.43741061811196 2.774246581073646 L 5.982181411107366 2.9419510327115095 M 5.68300682153384 2.301567287728693 L 5.823860495009522 2.319574027256043 L 5.852899532697996 2.0924226805945554 L 5.983833933393701 2.1091613398735007 L 5.954794895705227 2.3363126865349884 L 6.107551696516882 2.3558411223604248 L 6.140394974950571 2.098931957359004 L 6.276289012036265 2.1163046567621517 L 6.221761561354851 2.54283338630119 L 5.525428612200422 2.4538141528631625 L 5.579956062881834 2.027285423324124 L 5.715850099967528 2.044658122727272 L 5.68300682153384 2.301567287728693 M 6.261237454667556 1.7280012101683249 Q 6.240348526177295 1.790528425575128 6.193883754093456 1.8302055594836764 Q 6.147418982009616 1.8698826933922248 6.078704637831428 1.8764659223994418 L 6.066603867927593 1.6948686444249788 Q 6.105251619363795 1.6882844733362568 6.124177039642302 1.6639723679711946 Q 6.143102459920809 1.639660262606133 6.140642413292007 1.6027421346662694 Q 6.138115878916482 1.5648262194847882 6.119191871760232 1.5440384357368702 Q 6.100267864603982 1.5232506519889522 6.069336460113826 1.5253117721374074 Q 6.04339399183176 1.527040453552241 6.027595144291931 1.545632021974869 Q 6.011796296752103 1.564223590397497 6.0025160746357775 1.5903985302727222 Q 5.993235852519451 1.6165734701479475 5.982391755232846 1.6644002989581312 Q 5.965959389936126 1.7336460740693622 5.947864830971297 1.7779471681401449 Q 5.9297702720064684 1.8222482622109275 5.890922115248589 1.8559056643167824 Q 5.852073958490709 1.8895630664226373 5.786220000543926 1.8939512577064455 Q 5.688436850865369 1.9004670568854336 5.628339028938143 1.8333142326737628 Q 5.568241207010918 1.7661614084620922 5.56066160388434 1.6524136629176482 Q 5.552949025264314 1.5366703428899684 5.603605587156679 1.462137378791893 Q 5.654262149049044 1.3876044146938176 5.752710647235597 1.3760331915600157 L 5.765010880379605 1.5606238312593326 Q 5.731219089658044 1.5648799891311969 5.713291456621155 1.5891256067495345 Q 5.695363823584266 1.6133712243678722 5.697757382466343 1.6492915650661175 Q 5.699818502614798 1.6802229695562734 5.717545259289257 1.698083879326062 Q 5.735272015963716 1.7159447890958506 5.766203420453872 1.7138836689473953 Q 5.800128186668881 1.7116230855587666 5.816958536364442 1.67843062663923 Q 5.833788886060003 1.6452381677196932 5.851219038598341 1.575925904861738 Q 5.869646978378296 1.5065471542570583 5.887774781216487 1.4627449538070847 Q 5.905902584054678 1.4189427533571108 5.9437529535709395 1.3853518389979804 Q 5.981603323087202 1.35176092463885 6.044463919309131 1.3475721965952148 Q 6.104331153806207 1.3435829317917527 6.155250604920579 1.3707575430716057 Q 6.20617005603495 1.3979321543514585 6.238962175351884 1.4538756697102917 Q 6.271754294668817 1.5098191850691252 6.277006826660042 1.5886443771569416 Q 6.282126383157818 1.665473994761522 6.261237454667556 1.7280012101683249" fill="#fbe585" fill-rule="nonzero"></path></g><g clip-path="url(#SvgjsClipPath1005)"><path d=" M 0 0 L 4.917842593999607 0 L 4.917842593999607 3.7031739842254185 L 0 3.7031739842254185 Z" fill="#1192dc" transform="matrix(1,0,0,1,0,0)" fill-rule="nonzero" mask="url(#maskedIcon)"></path></g><g><path d=" M -0.22352086770878898 1.851586992112709 A 2.6824421647085925 2.6824421647085925 0 0 1 5.141363461708396 1.851586992112709 A 2.6824421647085925 2.6824421647085925 0 0 1 -0.22352086770878898 1.851586992112709 Z M -0.17352086770878916 1.8515869921127095 A 2.6324421647085927 2.6324421647085927 0 0 0 5.091363461708396 1.8515869921127095 A 2.6324421647085927 2.6324421647085927 0 0 0 -0.17352086770878916 1.8515869921127095 Z" fill="#ffffff" fill-rule="nonzero"></path></g><g><path d=" M -1.5914676407762411 1.85158699211271 A 4.050388937776045 4.050388937776045 0 0 1 6.50931023477585 1.85158699211271 A 4.050388937776045 4.050388937776045 0 0 1 -1.5914676407762407 1.85158699211271 Z M -1.5414676407762413 1.851586992112709 A 4.000388937776044 4.000388937776044 0 0 0 6.459310234775847 1.851586992112709 A 4.000388937776044 4.000388937776044 0 0 0 -1.5414676407762418 1.851586992112709 Z" fill="#ffffff" fill-rule="nonzero"></path></g><g transform="matrix(0.5769294746578922,-0.8167939650064565,0.8167939650064565,0.5769294746578922,-0.5717804621411637,-0.39499854797935713)"><g clip-path="url(#SvgjsClipPath1006)"><path d=" M -0.6666311840635757 0.5907430725596503 C -0.6313799840635756 0.5907430725596503 -0.6126527840635756 0.5687110725596503 -0.6126527840635756 0.5378662725596504 C -0.6126527840635756 0.5213422725596502 -0.6165083840635757 0.5070214725596502 -0.6313799840635756 0.4772782725596503 C -0.6523103840635757 0.43596827255965026 -0.6561659840635756 0.4227490725596502 -0.6600215840635757 0.38474387255965026 C -0.6330323840635756 0.38749787255965024 -0.6098987840635757 0.39355667255965027 -0.5906207840635757 0.4023694725596503 C -0.5410487840635756 0.42495227255965023 -0.5267279840635757 0.4310110725596502 -0.5057975840635758 0.4310110725596502 C -0.47715598406357573 0.4310110725596502 -0.45402238406357576 0.41173307255965025 -0.45402238406357576 0.3770326725596503 C -0.45402238406357576 0.3428830725596503 -0.47660518406357566 0.3230542725596503 -0.5057975840635758 0.3230542725596503 C -0.5223215840635758 0.3230542725596503 -0.5427011840635757 0.3291130725596503 -0.5674871840635757 0.34067987255965027 L -0.5906207840635757 0.3516958725596503 C -0.6121019840635756 0.3616102725596503 -0.6352355840635757 0.3676690725596503 -0.6600215840635757 0.3704230725596503 C -0.6561659840635756 0.33737507255965027 -0.6473531840635757 0.30818267255965026 -0.6335831840635757 0.2817442725596503 C -0.6198131840635757 0.2558566725596503 -0.6126527840635756 0.2338246725596503 -0.6126527840635756 0.21619907255965032 C -0.6126527840635756 0.1875574725596503 -0.6291767840635757 0.16442387255965032 -0.6666311840635757 0.16442387255965032 C -0.7046363840635756 0.16442387255965032 -0.7217111840635757 0.1870066725596503 -0.7217111840635757 0.21619907255965032 C -0.7217111840635757 0.23437547255965033 -0.7173047840635756 0.24594227255965032 -0.6919679840635757 0.3010222725596503 C -0.6831551840635757 0.32030027255965027 -0.6770963840635756 0.34343387255965024 -0.6743423840635756 0.3704230725596503 C -0.7013315840635757 0.3676690725596503 -0.7288715840635756 0.35940707255965026 -0.7580639840635757 0.3445354725596503 C -0.7867060430635756 0.3302146725596503 -0.8103904430635757 0.3230542725596503 -0.8285668430635756 0.3230542725596503 C -0.8572084430635756 0.3230542725596503 -0.8803420430635756 0.34233227255965026 -0.8803420430635756 0.3770326725596503 C -0.8803420430635756 0.41173307255965025 -0.8577592430635756 0.4310110725596502 -0.8285668430635756 0.4310110725596502 C -0.8087380430635757 0.4310110725596502 -0.7966204430635756 0.42660467255965023 -0.7437431840635756 0.4023694725596503 C -0.7244651840635756 0.39355667255965027 -0.7013315840635757 0.38749787255965024 -0.6743423840635756 0.38474387255965026 C -0.6781979840635757 0.4177918725596503 -0.6870107840635756 0.44698427255965023 -0.7007807840635756 0.47342267255965026 C -0.7145507840635756 0.49931027255965027 -0.7217111840635757 0.5207914725596503 -0.7217111840635757 0.5378662725596504 C -0.7217111840635757 0.5681602725596502 -0.7029839840635757 0.5907430725596503 -0.6666311840635757 0.5907430725596503 Z" fill="#ffffff" transform="matrix(1,0,0,1,0,0)" fill-rule="nonzero"></path></g></g><g transform="matrix(-0.5769294746578922,-0.8167939650064565,-0.8167939650064565,0.5769294746578922,9.096713247800055,4.711777287192443)"><g clip-path="url(#SvgjsClipPath1007)"><path d=" M 5.585589148063184 0.5907430725596501 C 5.620840348063183 0.5907430725596501 5.639567548063183 0.56871107255965 5.639567548063183 0.5378662725596501 C 5.639567548063183 0.52134227255965 5.635711948063183 0.50702147255965 5.620840348063183 0.4772782725596501 C 5.599909948063183 0.4359682725596501 5.596054348063183 0.42274907255965005 5.592198748063184 0.3847438725596501 C 5.619187948063184 0.38749787255965007 5.642321548063183 0.3935566725596501 5.661599548063183 0.4023694725596501 C 5.7111715480631835 0.42495227255965007 5.725492348063183 0.43101107255965004 5.746422748063183 0.43101107255965004 C 5.775064348063183 0.43101107255965004 5.798197948063184 0.4117330725596501 5.798197948063184 0.3770326725596501 C 5.798197948063184 0.3428830725596501 5.775615148063183 0.32305427255965014 5.746422748063183 0.32305427255965014 C 5.729898748063183 0.32305427255965014 5.709519148063183 0.3291130725596501 5.6847331480631835 0.3406798725596501 L 5.661599548063183 0.3516958725596501 C 5.640118348063183 0.3616102725596501 5.616984748063183 0.36766907255965015 5.592198748063184 0.3704230725596501 C 5.596054348063183 0.3373750725596501 5.6048671480631835 0.3081826725596501 5.618637148063184 0.2817442725596502 C 5.632407148063184 0.25585667255965017 5.639567548063183 0.23382467255965014 5.639567548063183 0.21619907255965015 C 5.639567548063183 0.18755747255965013 5.623043548063183 0.16442387255965016 5.585589148063184 0.16442387255965016 C 5.547583948063183 0.16442387255965016 5.530509148063183 0.18700667255965014 5.530509148063183 0.21619907255965015 C 5.530509148063183 0.23437547255965016 5.534915548063183 0.24594227255965015 5.560252348063183 0.30102227255965014 C 5.569065148063183 0.3203002725596501 5.575123948063183 0.3434338725596501 5.5778779480631835 0.3704230725596501 C 5.550888748063183 0.36766907255965015 5.523348748063183 0.3594070725596501 5.494156348063183 0.3445354725596501 C 5.465514289063183 0.33021467255965015 5.441829889063183 0.32305427255965014 5.423653489063184 0.32305427255965014 C 5.395011889063183 0.32305427255965014 5.371878289063183 0.3423322725596501 5.371878289063183 0.3770326725596501 C 5.371878289063183 0.4117330725596501 5.394461089063183 0.43101107255965004 5.423653489063184 0.43101107255965004 C 5.4434822890631835 0.43101107255965004 5.455599889063183 0.42660467255965007 5.508477148063183 0.4023694725596501 C 5.527755148063183 0.3935566725596501 5.550888748063183 0.38749787255965007 5.5778779480631835 0.3847438725596501 C 5.574022348063183 0.4177918725596501 5.565209548063184 0.44698427255965006 5.5514395480631835 0.4734226725596501 C 5.5376695480631835 0.4993102725596501 5.530509148063183 0.5207914725596501 5.530509148063183 0.5378662725596501 C 5.530509148063183 0.5681602725596501 5.549236348063183 0.5907430725596501 5.585589148063184 0.5907430725596501 Z" fill="#ffffff" transform="matrix(1,0,0,1,0,0)" fill-rule="nonzero"></path></g></g></g><defs><clipPath id="SvgjsClipPath1005"><path d=" M 0 0 h 4.917842593999607 v 3.7031739842254185 h -4.917842593999607 Z"></path></clipPath><mask id="maskedIcon"><path d=" M 4.838754985451153 2.223970111654054 C 4.830123222204726 2.24829151863615 4.821663602384867 2.2726375175363276 4.814827049158352 2.2916962540490924 C 4.776832535723228 2.307926919982543 4.736796893087381 2.287859914828458 4.712082015415989 2.3223377839780017 L 4.621583756877957 2.3211081880739526 C 4.617157211623379 2.2645467764876828 4.612730666368801 2.2077394457206028 4.608500856458872 2.151964975512924 C 4.6115256623828325 2.1481040443742097 4.6137389350101214 2.143234844594174 4.6165670055894354 2.1426200466421492 C 4.635060127986337 2.138980442766164 4.654168048335264 2.137947582206762 4.6722677000428705 2.1327832794097548 C 4.685693408398155 2.127419492520481 4.698498529551689 2.1206170295767177 4.710458948822644 2.1124949469929404 C 4.73679689308738 2.0936329458248233 4.755117872057716 2.071942874077393 4.7444449796105665 2.0352271403824793 C 4.741949866329739 2.027783441401023 4.742045200155224 2.0197147330803906 4.744715490709457 2.01233206464908 C 4.747370377419181 2.0049719075277395 4.752453109215715 1.9987355864326757 4.759126354704916 1.994650475548851 C 4.781037753715076 1.985108811333428 4.781652551667101 1.967058343461984 4.777840804364548 1.9471880736525462 C 4.779439279039812 1.9240716706564185 4.780841018370428 1.9007339403975618 4.782464084963772 1.8776175374014343 C 4.781234489059723 1.8601818674820143 4.780250812336483 1.842721605644514 4.7792425436951635 1.8252859357250941 C 4.7792425436951635 1.8031532094522056 4.785464298969653 1.7765939379247397 4.775824267081906 1.7599698013019927 C 4.76219164984607 1.7418520706501768 4.74248664150234 1.7292537866271362 4.720320307973118 1.7244836635111287 C 4.687131774917468 1.7180292600471891 4.653529850096254 1.7139204406755564 4.619763954939965 1.7121877044706353 C 4.607642730461697 1.7038452331257001 4.5950196149837055 1.696256580749862 4.581966176849486 1.689464772163803 C 4.530692027650628 1.6659303065602986 4.530077229698603 1.6655368358710028 4.533913568919237 1.5908757725771263 L 4.5677028643625155 1.6255257851532368 C 4.590773744851062 1.5977319338326013 4.601067135832933 1.5615041969683934 4.596057345909894 1.525731781580592 C 4.606508911094313 1.4851551167469634 4.5759411569196455 1.4544152191457298 4.570112872334452 1.4113301786678405 L 4.619985282202693 1.315987312267854 C 4.645118222481461 1.3149790436265334 4.673054641421462 1.3220861079519388 4.689752553798453 1.2936824425683988 C 4.715697027373894 1.2587865108114786 4.714073960780549 1.217816375288554 4.714688758732573 1.1774610377176546 C 4.73928067681356 1.1589925072388334 4.732370347832803 1.1307363933637795 4.736600157742733 1.1058493722658207 C 4.748531700179131 1.0993535996233375 4.7584181913925585 1.089662964824992 4.765151374634758 1.0778637694896578 C 4.7718919357631675 1.0660232617602097 4.77523610122584 1.0525529973138772 4.7748159984405865 1.0389347631674553 C 4.769184449200041 0.9855703009317136 4.794932187430834 0.9476495632508317 4.820261863054251 0.9074909610245802 C 4.833342549708117 0.8870242634246515 4.82872130919237 0.8599676455663235 4.809588970607103 0.8450028971807924 L 4.785464298969654 0.8044508242652448 C 4.7880956342043195 0.7953272226571987 4.795301066202049 0.7841624918484307 4.792497587540817 0.7773997143761593 C 4.787373033321336 0.7656333068742696 4.779625889043854 0.7551944295144914 4.769848430988227 0.7468811440376544 C 4.760117781500653 0.7385853971909723 4.748605842412678 0.7326442941236398 4.736206687053437 0.7295192498724776 C 4.722115517993032 0.7179610483744139 4.708663738802732 0.7051978428903816 4.693785628363735 0.6950905645590959 C 4.670516855748041 0.6826094149255694 4.6525235916642425 0.662162920755624 4.64310168519882 0.6374962924134246 C 4.646126491122782 0.6352584278680549 4.651339977755952 0.6334386259300618 4.651954775707977 0.6305859634326673 C 4.670644633449527 0.5348496263433852 4.670644633449527 0.5348496263433852 4.64007687927486 0.4571637571255474 C 4.633043590703698 0.4395313518614798 4.627018570773856 0.4216776193346832 4.619985282202693 0.4040206221525346 C 4.654413967516075 0.36973948834763876 4.6481184364873425 0.3299989487287639 4.6354535986756344 0.2894222838951354 C 4.632035322062376 0.27867561569374416 4.622198554829982 0.26692067885103243 4.624608562801918 0.258190547932282 C 4.636265131972306 0.21638428719460426 4.650946507066656 0.17521741632703208 4.664816348864332 0.13031257391114995 L 4.570899813713043 0.08243210940746823 C 4.512579765840546 0.056827445273743206 4.451426172293165 0.03823701699773073 4.388722884569091 0.027051109889085496 C 4.3625339769484 0.0046602828493734925 4.326800698140408 -0.0029730560984757375 4.29374889694032 0.006762777472271396 L 4.178166881959682 0.006762777472271396 C 4.136532764648571 0.00555777348630305 4.09189843333158 -0.006615225963785488 4.0542973905857504 0.0049429755342783755 C 3.9877270683405195 0.025231307951092602 3.919755006764671 0.021567112157025545 3.85320927643752 0.03211704501376894 C 3.8086101350661763 0.028528289326619362 3.76372456508998 0.031745655140542076 3.7200932238651374 0.041658709229191855 C 3.6740325612994496 0.050585575492590136 3.6243814786939366 0.04165870922919188 3.576501014190255 0.04997077754056547 C 3.5706727296050613 0.04571637571255472 3.5644509743305712 0.037404307401181135 3.5588194250900256 0.037674818500071997 C 3.510340523588371 0.03578243178106873 3.4640551392092043 0.057954134101492784 3.4351466690607424 0.0969167491571695 C 3.428043366277643 0.09569655830315046 3.4208248021049936 0.09528406892185622 3.413628740739878 0.09568715325312019 C 3.3975456263149133 0.07539882083630596 3.3818559825792436 0.09204754937713412 3.365969603498926 0.09568715325312019 C 3.3056456284462654 0.09568715325312019 3.2453216533936042 0.09711348450181743 3.1835959390103272 0.0983184884877858 C 3.153105213653538 0.09488460286567486 3.122454910859908 0.10323337937289498 3.097917696416169 0.12165621874664247 C 3.085942505649755 0.1313961022010359 3.06942864009487 0.13336819281222795 3.0554966377264665 0.12672215387132574 C 3.0152888516640526 0.11152434849727579 2.9847210974893863 0.13341115558935418 2.9489152647634693 0.1482154902741083 C 2.913109432037552 0.1630198249588624 2.8672700967345923 0.13402595354137883 2.8324971245680772 0.16850382269092254 L 2.762705261054236 0.18879215510773675 C 2.7204809377091816 0.17216801848498958 2.678453349708775 0.1585686877862038 2.6397456706493014 0.1975222860264871 L 2.6397456706493014 0.24100079719367204 C 2.6397456706493014 0.24323866173904185 2.6337206507194595 0.2452551990216828 2.63049910945085 0.24729632822240472 C 2.5514606847385584 0.18522632698599367 2.5514606847385584 0.18522632698599367 2.484496891804031 0.21402346305882938 C 2.434751982678696 0.21204396698948186 2.385050768817067 0.21891337584118967 2.3377077327786204 0.23431179547564354 C 2.2866636047841298 0.24636011016304715 2.2349212026782044 0.2552302362383487 2.1827786488684033 0.26087106700310925 L 1.9915273019525668 0.2937258695593081 C 1.9350640599083386 0.2999244965644275 1.8789542058118542 0.3090025390791601 1.8234169499509345 0.32092453095688056 C 1.7946294153785467 0.33014579018242546 1.7645732280243684 0.33479279871868717 1.7343450226616053 0.33469600508223235 C 1.6434778853523575 0.3300973164010877 1.563455783916826 0.3639603875986067 1.4853518520916114 0.404733787776883 C 1.4381107774580353 0.404733787776883 1.38964010692041 0.4290797866770601 1.3445877129960422 0.39735621235258695 C 1.3055849309195968 0.40547154531931257 1.262155603588574 0.3959298811038897 1.2285630434899455 0.4263500837700705 C 1.2220333072772838 0.4266485685796698 1.215588474997552 0.4279508062475178 1.2094551231410187 0.4302110149087854 L 1.1622878242616859 0.4302110149087854 C 1.143263843241488 0.42767810669292 1.1239880442351027 0.42767810669292 1.104964063214905 0.43021101490878555 C 1.0482551001201494 0.44481861424889174 0.9929724682740907 0.4365065459375181 0.9360667698346868 0.4326702067168842 C 0.8866267561969082 0.4284585752005098 0.8378028977043303 0.41880101805611647 0.7904826147952437 0.4038730706440484 C 0.7687990611407062 0.3964433377390826 0.7467030475518597 0.39027681741012543 0.7243057632393096 0.3854045401652276 C 0.7149421734656973 0.38299020156608987 0.7050493629104678 0.38366294718362076 0.6960988332004164 0.3873227097755443 C 0.687106920276554 0.3909858108201111 0.6795174346099193 0.3974209365783133 0.6744333533710668 0.4056928725820417 C 0.6543417562989005 0.4138082055487672 0.6517104210642348 0.4327439824711272 0.6482921444509777 0.45072067458832865 C 0.6304653498678988 0.4545375179254796 0.6133631872984258 0.4611791344573138 0.5976327932041445 0.4703942090531183 C 0.5564009043867326 0.5050360610048351 0.5331028901685617 0.5565069456770445 0.5342840122275222 0.6103468148520149 C 0.5367601752861128 0.6516589747640572 0.5309060905693043 0.6930473537118945 0.5170696695708314 0.7320522174348193 C 0.5119183062391217 0.754180072898568 0.5098248970505692 0.7769096975663697 0.5108479142963417 0.7996062164032903 C 0.4569999076540144 0.8279701904336105 0.3967364572227253 0.8419390447717041 0.33590100906820036 0.8401582893188378 C 0.32112060252171876 0.8393202583286953 0.3062956209345874 0.8405536040888753 0.29185688378515295 0.8438224851129049 C 0.24813245343715823 0.8557987492183454 0.2047031261061353 0.8698407344425891 0.15443724554859803 0.8853090509155299 C 0.14076413909556926 0.898490319006939 0.12468102467060381 0.9258611238310773 0.10176135701912398 0.9337797214531552 C 0.04805260793024849 0.9519777408330855 0.0297562208779942 0.9978170761360453 0 1.0379756783622966 C 0.009443296543098986 1.0627397398698506 0.017706181018310597 1.0838150136652565 0.025747738230793328 1.105111614723391 L 0.025747738230793328 1.1287690399173005 C 0.02205974397882496 1.1476078816069024 0.031019250912127084 1.166661766351725 0.047880464503681594 1.1758379711243097 C 0.05048775768389549 1.1830548411762825 0.054070430437391674 1.1898809497712808 0.058528765032748994 1.196126303541124 C 0.11909716196642221 1.2557874701165455 0.158774417884871 1.3334168838700322 0.1716515882052889 1.4174535662700063 C 0.17165158820528886 1.423749097298739 0.18089814940373994 1.4290117677680703 0.18571816534761337 1.4346679089266972 L 0.18734123194095853 1.4799170381957134 C 0.17969314541777157 1.503426911881137 0.17184832354993673 1.5269613774846413 0.1642002370267498 1.550495843088146 C 0.1491253912431048 1.5975401823770736 0.13122247488014632 1.6437975802874103 0.11976264105440639 1.6924895780877645 C 0.10877933451283647 1.7260369839288752 0.11523479413132302 1.762851547924587 0.1369769837110973 1.7906605150670647 C 0.15629179090678486 1.8148991973574267 0.16693986662230512 1.844904262747665 0.1672250429507112 1.875896103135765 C 0.1672250429507112 1.885437767351188 0.1795210019912047 1.8939465710072094 0.1859394926103423 1.9029472130248504 C 0.18532362357849524 1.9103119354912788 0.18532362357849524 1.917715216831311 0.1859394926103423 1.925079939297739 C 0.17843052206169183 1.9302632894989735 0.17269586959673588 1.9376290556889921 0.16951209133224301 1.9461798050112258 C 0.16631434361764402 1.9547501736449222 0.16579971914051397 1.964090607904833 0.16803657624738377 1.9729604038014206 L 0.1491253912431048 2.013512476716968 C 0.1776497755639724 2.0675178390807756 0.21427324867240086 2.1168384447365334 0.25772330148874256 2.1597606135445964 C 0.28546298508409645 2.212510277828314 0.3301219083191687 2.2563084839305523 0.3313269123051371 2.322067272879111 C 0.3313269123051371 2.3395029427985308 0.3576648565698741 2.356348406684007 0.3715346983675507 2.37336601399605 C 0.3783712515940651 2.3825142075221772 0.38338800288258645 2.3954987402689385 0.39165088735779807 2.4001466127862443 C 0.42514120956011514 2.4195164923740045 0.4514042071976464 2.449276042951444 0.46645950216016036 2.484914954411406 L 0.4306536694342434 2.5098757512636083 L 0.39647090330167145 2.5350332834604576 C 0.3827878277888824 2.5540910720596313 0.3590327806168453 2.5631166342138667 0.33614692824901055 2.557952951111938 C 0.30564384821804313 2.557176146344615 0.2758790724674522 2.5673974227094076 0.25228848759284506 2.5867500871847735 C 0.22559815722391402 2.6074624530623214 0.20052387821751028 2.630177283519598 0.17728313744583435 2.654697556842541 C 0.1697994419721994 2.667510772069309 0.1647939486240479 2.681617920822183 0.16252798659724274 2.69628249031749 C 0.13778851700776987 2.6985203548628593 0.10963077080503981 2.6922248238341266 0.0949739876287716 2.7216367578589877 C 0.08228455789898233 2.754491560415186 0.08712916576093677 2.7759848968179686 0.11646732403155419 2.815086046566738 C 0.12473020850676579 2.83780897887357 0.13296850106389643 2.8605319111804017 0.14140352896567493 2.883451578831881 C 0.16151971795592227 2.920167312526795 0.21272009140053708 2.9081910484213545 0.23450853082029155 2.944291984164243 C 0.256296970240046 2.9803929199071324 0.30336590144705494 2.9722775869404066 0.3451721621847328 2.9927626547018686 C 0.340942352274803 3.053627651952311 0.3877899562190832 3.0722929177757803 0.4364573621013563 3.0893105250878232 C 0.45657355109160364 3.0964175894132286 0.47666514816377 3.073497921761749 0.4733452392228367 3.0471353855789305 C 0.471524504712441 3.0396343956349194 0.4688941274732784 3.032353445471344 0.4655004173550018 3.0254207219134193 C 0.5041667042943642 2.984034191530583 0.5292196545016578 2.931791194644047 0.5372842262334027 2.8757297165544524 C 0.5390794362533148 2.8627451838076907 0.5513508033757273 2.8509902469649786 0.5586054192096185 2.8386205121702424 C 0.5668437117667492 2.845727576495648 0.5742704710272072 2.8589088445870567 0.5831973372906054 2.8589088445870567 C 0.6407178336820339 2.867024177553782 0.6550057380870874 2.9043301172826395 0.6511693988664533 2.9554567149730118 L 0.5377514726769416 3.0366100446402684 C 0.5620974715771186 3.058521443650428 0.5807873293186687 3.075342315617823 0.5980754477296025 3.091572981551274 C 0.617300263806859 3.077382540086546 0.6374624216367376 3.0645080081715426 0.6584240147003448 3.053037445918368 C 0.6830159327813314 3.0418727151096 0.7066733579752409 3.079399982101186 0.7352245748672668 3.056480314449706 C 0.7376837666753656 3.04735671284166 0.740659388763165 3.036216573950973 0.7434628674243975 3.025666641094229 C 0.760195236919234 3.018264694586478 0.7776506372797185 3.0126192983414675 0.795548549919928 3.0088211772087536 C 0.8124431976415658 3.00700137527076 0.8305428493491722 3.0291095096255676 0.8470194344634336 3.0122640457400913 C 0.8671356234536809 2.991975713323277 0.8524542483593316 2.9717119728245436 0.8470194344634336 2.9496038384697365 C 0.8455440724402271 2.93910548634647 0.8455440724402271 2.928452392022773 0.8470194344634336 2.9179540398995063 L 0.881620263203382 2.909223908980756 C 0.892883361684474 2.947759444613662 0.892883361684474 2.947759444613662 0.9174015040112181 2.931356635253644 L 0.9523958034404626 2.908436967602164 C 0.9520877958320114 2.919616460532802 0.9501236721373594 2.930688482710249 0.9465675188552688 2.9412917701583625 C 0.9324441456453716 2.96383426927411 0.9319801241472032 2.992347916845222 0.9453625148693002 3.0153380355002146 C 0.9491183114660358 3.025883456136832 0.9510235264515389 3.036998596838283 0.9509940641098462 3.0481928380564125 C 0.941708005099014 3.047700773776794 0.9324227287943377 3.0491756913125543 0.9237462188761127 3.0525210156386664 C 0.9150549517221557 3.0558818113375876 0.9071637511240265 3.0610253327465595 0.9005806320438231 3.0676204533403926 C 0.8871786574699059 3.081021515912976 0.8800375706335534 3.099445519950766 0.8809070975790336 3.1183781722595496 C 0.8493556666811274 3.1305511717096386 0.8171648459131156 3.1417159025184067 0.7860068857045049 3.155487376643759 C 0.7548489254958944 3.1692588507691117 0.7122311314615442 3.1648323055145338 0.6932953545391842 3.204671212805733 C 0.7113950062467905 3.2134013437244833 0.7335277325196788 3.2176557455524937 0.7439792977040982 3.2308370136439026 C 0.7582019858185896 3.2516784290830425 0.7700081980891226 3.2740698058141575 0.7791703324779907 3.297579479315701 C 0.7987207474061462 3.2944667978689366 0.8186405209442038 3.2944667978689366 0.8381909358723595 3.297579479315701 C 0.8674842717186837 3.309312668199173 0.9009956163968315 3.3011644632597466 0.9216313139211479 3.2772911468988872 C 0.9395342302841065 3.260863745620788 0.9572404113024171 3.2760861429129187 0.9749220004026466 3.280734015430225 L 1.0640185196100622 3.3036536830817047 C 1.0931599425360319 3.286439340425014 1.1219324866907865 3.268585607898218 1.151270644961404 3.252010655111632 C 1.1672048805272999 3.2406330333213393 1.187924552674839 3.2384044097195113 1.2059138869373567 3.246133186690277 C 1.267246130631338 3.2753483853704886 1.3064702399705124 3.2461331866902765 1.337037994145179 3.194809853655257 C 1.3388332041650912 3.1917850477312957 1.343259749419669 3.190358716482598 1.3464812906882782 3.188342179199957 C 1.354731147331398 3.1931803052241676 1.3612976564560482 3.2004335081134876 1.3652941080202332 3.209122349978391 C 1.3693217985485255 3.217829192397833 1.3706164819248492 3.227552178813401 1.3690074876504623 3.23700958508223 C 1.3671876857124692 3.2585029214850123 1.3647776777405325 3.2800208498058763 1.3627611404578917 3.3002845903046096 C 1.4052067910656751 3.3236223205634663 1.445217841783441 3.343689325717551 1.4860404257978792 3.335598584668907 C 1.548577673477829 3.3233026256284135 1.6090000162028137 3.300505917567339 1.670627362913767 3.2822341224331657 C 1.6732251913815228 3.303900515423254 1.6703941394181079 3.3258728590199085 1.6623890703566366 3.3461731094437313 C 1.654453056037341 3.366527846577406 1.6415223061520157 3.3845581662343798 1.624788027610807 3.3986030787923958 C 1.5823423770030236 3.433031764105777 1.5242316745776516 3.42639194622391 1.4777775413226673 3.4501231471720626 C 1.4741625293647622 3.478526812555603 1.4707442527515049 3.5042253669502337 1.4673259761382478 3.5312764768393197 C 1.479556021538972 3.5415276193964758 1.4930527662542454 3.550164544214272 1.5074845783644995 3.5569750312339514 C 1.521567393765489 3.5629616636029167 1.5374092380857582 3.5633225056124336 1.551750030910276 3.557983299875271 C 1.6012043781711407 3.5269482992570658 1.6470437134741003 3.5537288980472606 1.6941126446811094 3.5624590289660105 C 1.6969534255370773 3.5991580562461345 1.7151310857455748 3.63295993323502 1.7441817898939989 3.655564030820627 L 1.8306469738667492 3.655564030820627 C 1.8879461429954485 3.65413769957193 1.9434501021042363 3.656769034806596 1.9949455785658226 3.6886155687214734 C 2.0291860321784343 3.7061498882560326 2.0693048859804817 3.7081468758448404 2.105117371568644 3.694099566453534 C 2.1300535765027653 3.6867219910292377 2.156416112685583 3.6837463689414385 2.182139258998296 3.678877169161403 C 2.193008886790092 3.675237565285417 2.205476989257152 3.6663106990220187 2.2147235504556035 3.669040401929008 C 2.2535295971874008 3.680008397393128 2.288130425927349 3.6676140706803113 2.3257314686731783 3.6599168003209614 C 2.377792559250628 3.64917013211957 2.4278617044635173 3.6230289231994814 2.483586990835034 3.632865690431876 C 2.4948500893161256 3.6531294309306097 2.5008013334917245 3.67607369050017 2.5237947768974474 3.687828627342882 L 2.6153013040767994 3.670171630160734 C 2.616862673457593 3.6484622602502594 2.624955424212538 3.627733159269904 2.638516074745252 3.6107083722409072 C 2.6520064495825975 3.593750494024598 2.6703484232652976 3.581310895409109 2.6910935956024016 3.5750500910234764 C 2.7325309775688646 3.561057289635395 2.7616724004948345 3.5107422252416955 2.814053186007336 3.532038826299831 C 2.843194608933306 3.511775085801097 2.8484818713207183 3.4685670857328037 2.88964874218829 3.460722263864968 C 2.8966123074024637 3.468595692158418 2.904670547417124 3.4754282183784535 2.913576678481091 3.481010596281782 C 2.9538090564615853 3.501298928698596 2.9793354674296495 3.4911424665311492 2.994016842523999 3.4503690663528723 C 2.997631854481904 3.4394256628068334 2.996623585840583 3.4248180634667276 3.003460139067098 3.4177355910594027 C 3.0151066563387516 3.4085636414767593 3.02796747523176 3.4010490832046547 3.0416759797649515 3.3954061294418674 C 3.0687270896540375 3.3879055944271657 3.0963684055770666 3.3814133280537857 3.12211614380786 3.372289726445739 C 3.1346116816512226 3.3667051467026763 3.146530097901945 3.35990991974563 3.157700649271048 3.352001394028925 C 3.197661000962358 3.355606946904906 3.237773280528215 3.3469789902567872 3.272717050135823 3.327261924439453 C 3.342090851042288 3.331319590922815 3.4058331027082063 3.306973592022638 3.469993416981501 3.2866852596058234 C 3.4828445250051994 3.283132651242166 3.4947631653253692 3.2768124145090054 3.5049139406565013 3.268167545290841 C 3.5150890015837652 3.2594877392321995 3.5232751978185775 3.2487181941855816 3.5289156527035455 3.236591522474854 C 3.5361456766193555 3.2353865184888857 3.5436708035521374 3.234574985192213 3.5512205224030007 3.2339601872401884 C 3.6004043585649748 3.24246899089621 3.644128788912969 3.2173360506174413 3.690779657512602 3.210425721636684 C 3.7533293790583784 3.2154130930154916 3.8162363364144003 3.2074775247422367 3.8755879218912175 3.187112583295908 L 3.944764987453034 3.187112583295908 C 3.995712639951007 3.1924552954810994 4.045156239998847 3.167862878787407 4.071634692832847 3.1240097215000953 C 4.087459060553861 3.105041418247848 4.105479957583826 3.088019389078912 4.125318850003641 3.0733011864171 L 4.171379512569329 3.156913707892456 C 4.17907727023849 3.1592234236234953 4.187073952256811 3.160383564019936 4.19511071351748 3.1603565764237938 C 4.244983123385722 3.152437978801716 4.2615088923361455 3.09747504189071 4.305503833783032 3.082867442550604 C 4.335419571285382 3.078382853616801 4.365084052727436 3.0723580253438447 4.394379025727719 3.064816974679159 C 4.4203234993031595 3.0585214436504273 4.44602205369779 3.0516357065877506 4.471794383846665 3.0445286422623457 C 4.502784420940674 3.0404714031785143 4.530054561138512 3.0220574528477995 4.545397994663059 2.994828375820671 C 4.53917623938857 2.9617768379198246 4.531134682176086 2.928430197002006 4.526904872266156 2.8934113056546806 C 4.520846484511052 2.8698955159751143 4.5308942560369765 2.845185588783131 4.551644341855629 2.8325709003223194 C 4.564702650356634 2.8262753692935867 4.584400776739503 2.823447298714273 4.589638855290754 2.813290836546825 C 4.600814019547269 2.7870365883579162 4.609764151732108 2.759890047723756 4.616394862162867 2.732137506879568 L 4.535954698119959 2.665198305863122 L 4.574760744851757 2.6246462329475744 C 4.581990768767567 2.623219901698877 4.594876933842004 2.6246462329475744 4.595885202483325 2.619727849331377 C 4.612558522942234 2.574896782669738 4.62765796064396 2.5296722453188027 4.643323012461549 2.484226380705139 C 4.65624898946125 2.4909356917845686 4.669705196071134 2.49656986142257 4.683555390442045 2.501071844590615 C 4.714713350650653 2.508769114949964 4.731804733716939 2.4936942691663186 4.733009737702909 2.460495179756986 C 4.735046750731987 2.441851848210746 4.727480132387638 2.4234493137551474 4.712918140630742 2.4116310385300657 C 4.712918140630742 2.355241770370362 4.712918140630742 2.355241770370362 4.7565442033064125 2.3416424396715767 L 4.843624185231188 2.3483314413896053 C 4.8539951268769395 2.3222763373203077 4.862919187517411 2.295668351546829 4.87035560018522 2.2686290348891256 C 4.871427825020466 2.2635783930333253 4.871427825020466 2.2583589117804728 4.87035560018522 2.2533082699246716 C 4.869294468352793 2.2482662408861374 4.867210390114942 2.243495459377805 4.864232212583054 2.239290876618509 C 4.861234772910449 2.2351173406062808 4.857398451669789 2.231616069255634 4.852969114101962 2.229011454860656 C 4.848638842419081 2.226349019428926 4.843795116812121 2.224631089066596 4.838754985451153 2.223970111654054 Z" fill="#ffffff" transform="matrix(1,0,0,1,0,0)" fill-rule="nonzero"></path><path d=" M 4.892045671932652 2.42195964412408 C 4.887546864371261 2.421076779330258 4.882906887083186 2.4212196771815213 4.878470933151948 2.422377706731457 C 4.869462516695517 2.424759711971501 4.8620141619606985 2.4310871977899167 4.8582071926532135 2.4395920493881476 C 4.856292235453207 2.443795397159281 4.85535074211063 2.4483767710137903 4.855452897828143 2.4529946447422857 C 4.85455956088661 2.460501459396875 4.856785398217965 2.4680460330251797 4.8616104069854105 2.473865793118477 C 4.866435415752856 2.4796855532117745 4.873436952188564 2.483270721352604 4.880979308796208 2.4837837261796807 C 4.890098334569787 2.4856191413382724 4.899556912896189 2.4832024519476996 4.906677863190839 2.4772176840520577 C 4.913825022411371 2.471197520813841 4.917895525626964 2.4622893463708464 4.9177688182453645 2.4529454609061236 C 4.9182916740958165 2.445435751157917 4.915905387125121 2.438012725636528 4.911104408445417 2.4322144739638514 C 4.906321507860948 2.426454265773469 4.899487947253263 2.422777369291657 4.892045671932653 2.42195964412408 Z" fill="#ffffff" transform="matrix(1,0,0,1,0,0)" fill-rule="nonzero"></path><path d=" M 4.873724692962316 2.107133908851285 C 4.8769462342309255 2.107133908851285 4.883782787457441 2.095993769960598 4.882577783471472 2.0929443721185557 C 4.880579199071378 2.0857228411487214 4.875864683787276 2.079554316477934 4.869421107298144 2.075730029461865 C 4.863030222886124 2.071948228680343 4.855415700935906 2.070810020880136 4.848198281994253 2.072557672029417 C 4.845985009366964 2.075410334526812 4.841558464112386 2.07885320305815 4.842148670146329 2.0810910676035195 C 4.843196743562559 2.0886139217167887 4.847032253304359 2.095468688555108 4.852895338347721 2.100297355624771 C 4.858714161170229 2.1051462138259818 4.866164218100111 2.1075914509292955 4.873724692962316 2.1071339088512846 Z" fill="#ffffff" transform="matrix(1,0,0,1,0,0)" fill-rule="nonzero"></path><path d=" M 1.58872670251049 2.132002760418551 L 1.8766012816262403 1.6486007836430592 L 1.5075677372693437 0.9677179111385635 L 1.9487031194553552 0.9677179111385635 L 2.2758252506899095 1.5715264052740059 L 2.0673337294796124 1.9217353318725623 L 2.2449244630488603 1.9217353318725623 L 2.813214810470453 0.9680730926057022 L 3.688559536233275 0.9680730926057022 L 3.5630028875998168 1.1786957026188298 L 2.865604076873381 1.1786957026188298 L 2.8123268568026067 1.2697997489398543 L 3.5097256675290422 1.2697997489398543 L 3.3843466096291532 1.480422358952982 L 2.6858822545013026 1.480422358952982 L 2.631539490029113 1.5715264052740059 L 3.3289383007555484 1.5715264052740059 L 3.041241312373367 2.0549283820494977 L 3.4102748567302634 2.7358112545539934 L 2.968961883810683 2.7358112545539934 L 2.642017343309698 2.132002760418552 L 2.8505088645199947 1.7817938338199957 L 2.681264895428502 1.7817938338199957 L 2.112974548006909 2.7354560730868553 L 1.2289278762991935 2.7354560730868553 L 1.3543069341990823 2.5248334630737275 L 2.060407690870411 2.5248334630737275 L 2.114750455342601 2.433729416752703 L 1.4086496986712724 2.433729416752703 L 1.5340287565711612 2.2231068067395756 L 2.2401295132424903 2.2231068067395756 L 2.29447227771468 2.132002760418551 Z M 2.8654264861398118 2.735811254553993 L 2.5876745788375084 2.223639578940283 L 2.4622955209376194 2.434262188953411 L 2.625856586554897 2.736166436021132 Z M 2.522143598150456 2.735811254553993 L 2.4079527564654297 2.5251886445408656 L 2.282573698565541 2.735811254553993 Z M 2.052416107859796 0.9680730926057017 L 2.32999042442853 1.480422358952981 L 2.4553694823284187 1.2697997489398534 L 2.2919860074447103 0.9678955018721326 Z M 2.3955214051155824 0.9680730926057017 L 2.509712246800609 1.1786957026188294 L 2.6350913047004982 0.9680730926057017 Z" fill="NA" transform="matrix(1,0,0,1,0,0)" fill-rule="evenodd"></path></mask><clipPath id="SvgjsClipPath1006"><path d=" M -0.9884888690635756 0.03314987255965035 h 0.6425999999999998 v 0.6425999999999998 h -0.6425999999999998 Z"></path></clipPath><clipPath id="SvgjsClipPath1007"><path d=" M 5.263731463063183 0.033149872559650184 h 0.6425999999999998 v 0.6425999999999998 h -0.6425999999999998 Z"></path></clipPath></defs></svg>